<svg width="98" height="90" viewBox="0 0 98 90" fill="none" xmlns="http://www.w3.org/2000/svg">
<path d="M48.9341 18.2884C41.3951 18.2608 35.9133 13.6018 34.7535 6.02573C34.5878 4.90591 34.7811 3.44047 35.4301 2.6248C35.7615 2.21005 37.5841 2.6248 38.5368 3.09485C43.1486 5.29301 47.7605 7.40823 53.0212 5.66628C55.2995 4.90591 57.4674 3.84139 59.7042 2.9566C62.9353 1.67088 63.9294 2.4589 63.4324 5.90131C62.3415 13.4497 56.6527 18.3161 48.9479 18.3023L48.9341 18.2884Z" fill="black"/>
<path d="M48.8511 80.971C69.8528 80.971 86.8779 63.9248 86.8779 42.8971C86.8779 21.8694 69.8528 4.82324 48.8511 4.82324C27.8494 4.82324 10.8105 21.8694 10.8105 42.8971C10.8105 63.9248 27.8356 80.971 48.8373 80.971H48.8511Z" fill="#FFD21E"/>
<path d="M86.878 42.8968C86.878 21.8691 69.853 4.82293 48.8513 4.82293C27.8495 4.82293 10.8107 21.8691 10.8107 42.8968C10.8107 63.9245 27.8357 80.9706 48.8374 80.9706C69.8392 80.9706 86.8642 63.9245 86.8642 42.8968H86.878ZM6.43359 42.8968C6.43359 19.4497 25.4194 0.44043 48.8513 0.44043C72.2831 0.44043 91.2551 19.4497 91.2551 42.8968C91.2551 66.3439 72.2693 85.3531 48.8513 85.3531C25.4332 85.3531 6.43359 66.3439 6.43359 42.8968Z" fill="#FF9D0B"/>
<path d="M61.1952 32.5418C62.5898 33.0257 63.1421 35.9013 64.5505 35.1547C67.2154 33.7307 68.2372 30.4128 66.815 27.7446C65.3927 25.0763 62.0789 24.0533 59.414 25.4773C56.749 26.9012 55.7273 30.2192 57.1495 32.8874C57.8122 34.1455 59.9387 32.0994 61.1952 32.5418ZM35.4298 32.5418C34.0352 33.0257 33.469 35.9013 32.0745 35.1547C29.4095 33.7307 28.3878 30.4128 29.81 27.7446C31.2322 25.0763 34.5461 24.0533 37.211 25.4773C39.8759 26.9012 40.8977 30.2192 39.4754 32.8874C38.8127 34.1455 36.6725 32.0994 35.4298 32.5418Z" fill="#3A3B45"/>
<path d="M48.5754 58.8372C59.3317 58.8372 62.7975 49.2427 62.7975 44.3072C62.7975 41.7496 61.0853 42.5515 58.3238 43.9063C55.7693 45.1644 52.345 46.9063 48.5893 46.9063C40.7188 46.9063 34.3672 39.3717 34.3672 44.2934C34.3672 49.2151 37.8191 58.8234 48.5893 58.8234L48.5754 58.8372Z" fill="#FF323D"/>
<path fill-rule="evenodd" clip-rule="evenodd" d="M40.3315 56.3207C41.5051 53.9428 43.6039 52.1594 46.1308 51.399C46.5726 51.2608 47.0145 52.0211 47.4839 52.7953C47.9258 53.5419 48.3814 54.3023 48.8371 54.3023C49.3342 54.3023 49.8174 53.5557 50.2869 52.823C50.784 52.0626 51.2673 51.3161 51.7367 51.4543C54.0841 52.2009 56.0586 53.846 57.2046 56.0304C61.2917 52.8092 62.783 47.5557 62.783 44.3068C62.783 41.7492 61.0708 42.5511 58.3093 43.9059L58.1574 43.9889C55.6305 45.2469 52.2614 46.9197 48.5609 46.9197C44.8604 46.9197 41.5051 45.2608 38.9645 43.9889C36.1201 42.5787 34.3389 41.6939 34.3389 44.3068C34.3389 47.6525 35.9406 53.141 40.3315 56.3207Z" fill="#3A3B45"/>
<path d="M74.5613 37.6986C76.522 37.6986 78.1237 36.1087 78.1237 34.1318C78.1237 32.1548 76.5358 30.5649 74.5613 30.5649C72.5867 30.5649 70.9988 32.1548 70.9988 34.1318C70.9988 36.1087 72.5867 37.6986 74.5613 37.6986ZM23.6794 37.6986C25.6401 37.6986 27.2418 36.1087 27.2418 34.1318C27.2418 32.1548 25.6539 30.5649 23.6794 30.5649C21.7049 30.5649 20.117 32.1548 20.117 34.1318C20.117 36.1087 21.7049 37.6986 23.6794 37.6986ZM16.3475 49.7539C14.5801 49.7539 12.9922 50.4728 11.8875 51.8C10.9486 52.9613 10.4377 54.4268 10.4377 55.9199C9.74731 55.7125 9.02931 55.6019 8.3113 55.5881C6.61294 55.5881 5.08027 56.2378 4.00326 57.413C2.01493 59.4729 1.65592 62.625 3.13336 65.0858C2.16681 65.8738 1.47642 66.966 1.17265 68.1826C0.910301 69.1641 0.647953 71.2517 2.04254 73.3807C0.979341 75.0259 0.827455 77.0996 1.64212 78.8831C2.76055 81.4268 5.54973 83.4176 10.9624 85.5605C14.3177 86.9015 17.4107 87.7587 17.4245 87.7587C21.3183 88.837 25.3364 89.4315 29.382 89.5144C35.7889 89.5144 40.3869 87.5375 43.0242 83.6665C47.277 77.4314 46.6694 71.7218 41.1601 66.2194C38.1224 63.1779 36.1065 58.6848 35.6922 57.7033C34.8361 54.7862 32.5855 51.5512 28.8573 51.5512C26.8414 51.5788 24.9635 52.5881 23.8175 54.247C22.7267 52.8646 21.6497 51.7862 20.6831 51.1503C19.399 50.2793 17.8939 49.7954 16.3336 49.7539H16.3475ZM16.3475 54.1364C16.8998 54.1364 17.5902 54.3715 18.3358 54.8553C20.6831 56.3484 25.1707 64.0904 26.8276 67.1042C27.3799 68.1134 28.3327 68.542 29.1749 68.542C30.8733 68.542 32.185 66.8692 29.3406 64.7263C25.0464 61.519 26.5514 56.2655 28.595 55.9475C28.6778 55.9199 28.7745 55.9199 28.8573 55.9199C30.7214 55.9199 31.5361 59.1272 31.5361 59.1272C31.5361 59.1272 33.9386 65.1826 38.081 69.3162C42.2095 73.4499 42.4304 76.7679 39.4203 81.178C37.363 84.1918 33.4277 85.1043 29.3959 85.1043C25.364 85.1043 20.9317 84.1227 18.5429 83.5006C18.4186 83.4729 3.82375 79.3393 5.674 75.8278C5.97778 75.2333 6.48866 74.9983 7.13763 74.9983C9.74731 74.9983 14.4696 78.8831 16.5131 78.8831C16.955 78.8831 17.2726 78.7033 17.4245 78.2195C18.2944 75.095 4.22418 73.7817 5.41165 69.2609C5.63258 68.4591 6.18489 68.1411 6.98575 68.1411C10.4239 68.1411 18.1425 74.1964 19.7718 74.1964C19.8961 74.1964 19.9927 74.1688 20.0341 74.0858C20.8488 72.7724 20.3932 71.8462 14.6767 68.3899C8.97407 64.9337 4.956 62.8461 7.23429 60.3577C7.49664 60.0673 7.86945 59.9429 8.32511 59.9429C11.7909 59.9429 19.9927 67.4222 19.9927 67.4222C19.9927 67.4222 22.202 69.7171 23.5551 69.7171C23.8589 69.7171 24.1213 69.6065 24.3008 69.3024C25.2397 67.6987 15.4776 60.2885 14.9391 57.2332C14.5662 55.1457 15.2014 54.1088 16.3751 54.1088L16.3475 54.1364Z" fill="#FF9D0B"/>
<path d="M39.4209 81.178C42.431 76.754 42.21 73.4361 38.0815 69.3024C33.9391 65.1687 31.5366 59.1134 31.5366 59.1134C31.5366 59.1134 30.6391 55.6019 28.5955 55.9337C26.552 56.2655 25.0469 61.5051 29.3411 64.7125C33.6216 67.9199 28.485 70.1042 26.8281 67.0904C25.185 64.0766 20.6836 56.3346 18.3363 54.8415C16.0028 53.3623 14.3596 54.1779 14.912 57.2471C15.4643 60.3024 25.2264 67.7125 24.2737 69.3024C23.3209 70.9199 19.9794 67.4222 19.9794 67.4222C19.9794 67.4222 9.49928 57.883 7.22099 60.3715C4.9427 62.86 8.96077 64.9475 14.6634 68.4038C20.3937 71.86 20.8355 72.7863 20.0208 74.0997C19.2062 75.413 6.58583 64.754 5.39835 69.2747C4.21088 73.7817 18.2811 75.0812 17.4112 78.2057C16.5413 81.3301 7.49714 72.3162 5.6607 75.8139C3.79665 79.3255 18.4053 83.4591 18.5296 83.5006C23.2381 84.731 35.2233 87.3301 39.407 81.178H39.4209Z" fill="#FFD21E"/>
<path d="M81.8792 49.7539C83.6466 49.7539 85.2345 50.4728 86.3392 51.8C87.2781 52.9613 87.789 54.4267 87.789 55.9198C88.4794 55.7125 89.1974 55.6019 89.9292 55.588C91.6275 55.588 93.1602 56.2378 94.2372 57.4129C96.2256 59.4728 96.5846 62.6249 95.1071 65.0858C96.0737 65.8738 96.7503 66.9659 97.054 68.1825C97.3164 69.1641 97.5787 71.2517 96.1841 73.3807C97.2473 75.0259 97.3992 77.0996 96.5846 78.883C95.4661 81.4268 92.6769 83.4176 87.2781 85.5605C83.909 86.9015 80.816 87.7586 80.8022 87.7586C76.9084 88.837 72.8903 89.4315 68.8446 89.5144C62.4378 89.5144 57.8398 87.5374 55.2025 83.6665C50.9497 77.4314 51.5572 71.7217 57.0665 66.2194C60.1043 63.1779 62.134 58.6848 62.5483 57.7032C63.4043 54.7862 65.6412 51.5511 69.3831 51.5511C71.3991 51.5788 73.2769 52.588 74.423 54.247C75.5138 52.8645 76.5908 51.7862 77.5574 51.1502C78.8415 50.2793 80.3465 49.7954 81.893 49.7539H81.8792ZM81.8792 54.1364C81.3269 54.1364 80.6365 54.3714 79.8909 54.8553C77.5574 56.3484 73.056 64.0904 71.3991 67.1042C70.9434 67.9752 70.0459 68.5282 69.0517 68.542C67.3672 68.542 66.0416 66.8692 68.8999 64.7263C73.1803 61.5189 71.6752 56.2654 69.6317 55.9475C69.5488 55.9336 69.4522 55.9198 69.3693 55.9198C67.5053 55.9198 66.6906 59.1272 66.6906 59.1272C66.6906 59.1272 64.288 65.1825 60.1595 69.3162C56.0171 73.4498 55.81 76.7678 58.8201 81.178C60.8637 84.1918 64.8127 85.1043 68.8308 85.1043C72.8489 85.1043 77.295 84.1227 79.6976 83.5006C79.808 83.4729 94.4167 79.3393 92.5665 75.8277C92.2489 75.2333 91.7518 74.9982 91.1028 74.9982C88.4932 74.9982 83.7571 78.883 81.7273 78.883C81.2717 78.883 80.9541 78.7033 80.816 78.2194C79.9461 75.095 94.0025 73.7816 92.815 69.2609C92.6079 68.459 92.0556 68.1411 91.2409 68.1411C87.8028 68.1411 80.0842 74.1964 78.4549 74.1964C78.3444 74.1964 78.2478 74.1687 78.2063 74.0858C77.3917 72.7724 77.8335 71.8461 83.55 68.3899C89.2802 64.9337 93.2845 62.8461 90.9924 60.3576C90.7438 60.0673 90.371 59.9429 89.9154 59.9429C86.4358 59.9429 78.2339 67.4222 78.2339 67.4222C78.2339 67.4222 76.0247 69.7171 74.6853 69.7171C74.3816 69.7171 74.0916 69.565 73.9397 69.3024C72.987 67.6987 82.7491 60.2885 83.3014 57.2332C83.6742 55.1456 83.0391 54.1088 81.8654 54.1088L81.8792 54.1364Z" fill="#FF9D0B"/>
<path d="M58.8203 81.178C55.8102 76.754 56.0173 73.4361 60.1597 69.3024C64.2882 65.1687 66.6908 59.1134 66.6908 59.1134C66.6908 59.1134 67.5883 55.6019 69.6457 55.9337C71.6754 56.2655 73.1805 61.5051 68.9 64.7125C64.6058 67.9199 69.7561 70.1042 71.3993 67.0904C73.0562 64.0766 77.5575 56.3346 79.8911 54.8415C82.2246 53.3623 83.8677 54.1779 83.3154 57.2471C82.7631 60.3024 73.001 67.7125 73.9537 69.3024C74.8926 70.9199 78.2479 67.4222 78.2479 67.4222C78.2479 67.4222 88.7281 57.883 91.0064 60.3715C93.2847 62.86 89.2804 64.9475 83.564 68.4038C77.8337 71.86 77.4057 72.7863 78.2065 74.0997C79.0212 75.413 91.6415 64.754 92.829 69.2747C94.0165 73.7817 79.9601 75.0812 80.83 78.2057C81.6999 81.3301 90.7302 72.3162 92.5805 75.8139C94.4307 79.3255 79.8358 83.4591 79.7116 83.5006C74.9893 84.731 63.0179 87.3301 58.8341 81.178H58.8203Z" fill="#FFD21E"/>
</svg>
