<svg width="244" height="64" viewBox="0 0 244 64" fill="none" xmlns="http://www.w3.org/2000/svg">
<path d="M9.74305 22.3297H24.766V6.00251H34.8319V49.2054H25.0145V31.3574H9.89494V49.2469H0.0361328V5.86426H9.74305V22.3021V22.3297Z" fill="white"/>
<path d="M121.877 35.6295C118.024 32.2009 116.795 27.6249 118.949 22.5926C121.2 17.3391 125.978 15.4313 131.28 15.4175C137.203 15.4175 143.113 16.0811 149.299 16.4682V23.2562C147.766 23.3806 146.33 23.5051 144.715 23.6295C144.715 23.9889 144.673 24.2793 144.715 24.5558C146.234 32.9198 142.298 38.0765 133.793 38.7401C132.315 38.8507 130.797 38.4636 129.347 38.6987C128.463 38.8369 127.676 39.6941 126.847 40.2194C127.455 41.0627 127.911 42.3761 128.698 42.6249C130.189 43.095 131.86 42.9153 133.461 43.0259C136.775 43.2609 140.158 43.1226 143.375 43.8277C149.838 45.2379 152.226 51.9291 148.029 57.0582C146.372 59.0766 143.9 60.7633 141.456 61.7586C136.03 63.9706 130.272 63.9983 124.555 62.7264C121.186 61.9798 118.19 60.5559 117.279 56.7955C116.492 53.5328 117.444 51.6526 120.965 48.7079C120.192 46.3853 118.839 44.201 118.949 42.0858C119.06 40.0397 120.675 38.0765 121.849 35.6157L121.877 35.6295ZM132.771 57.625C134.718 56.989 136.831 56.519 138.708 55.5651C139.482 55.178 140.227 53.6434 140.062 52.8139C139.91 52.0535 138.57 51.1134 137.659 51.0028C134.718 50.6434 131.735 50.436 128.781 50.5743C127.717 50.6158 126.088 51.5973 125.812 52.4683C125.522 53.4222 126.171 55.3301 127.013 55.8277C128.601 56.7678 130.617 57.0029 132.771 57.6112V57.625ZM127.386 27.3207C127.358 30.4867 129.167 32.7263 131.804 32.7954C134.469 32.8645 136.403 30.694 136.485 27.5696C136.554 24.4728 134.704 22.2055 132.039 22.1364C129.319 22.0534 127.4 24.1825 127.372 27.3346L127.386 27.3207Z" fill="white"/>
<path d="M215.024 48.2934C211.172 43.4132 211.323 40.9662 215.231 36.8049C213.961 33.6943 212.097 30.9293 211.779 27.9846C211.006 20.6989 216.419 15.6113 224.745 15.3901C227.7 15.3072 230.654 15.9569 233.623 16.0813C236.578 16.2058 239.547 16.109 242.722 16.109V23.298C241.162 23.4086 239.712 23.5192 238.262 23.6159C239.726 34.3026 234.576 39.6114 223.778 38.7128C222.287 38.5883 220.326 38.1321 220.478 40.275C220.547 41.2289 222.425 42.6805 223.612 42.8188C227.465 43.3026 231.4 43.0953 235.266 43.51C238.953 43.8971 242.281 45.2243 243.233 49.3856C244.172 53.4778 242.667 56.7819 239.478 59.3672C233.941 63.8465 221.196 64.9801 214.844 61.6068C209.763 58.911 209.045 53.6437 213.243 49.8004C213.809 49.275 214.416 48.7911 215.01 48.2934H215.024ZM225.863 50.6437C225.863 50.6437 225.863 50.7266 225.863 50.7681C224.717 50.6713 223.488 50.2704 222.466 50.5746C221.251 50.9478 219.691 51.7082 219.291 52.7036C218.973 53.5193 219.829 55.3165 220.699 55.9801C223.336 57.9571 230.074 57.6253 232.422 55.4824C233.14 54.8188 233.72 53.5193 233.609 52.6068C233.526 51.9709 232.201 51.169 231.331 51.0169C229.55 50.6852 227.686 50.7405 225.863 50.6437ZM229.895 27.3487C229.881 24.1413 228.059 22.0675 225.338 22.1228C222.66 22.192 220.865 24.3901 220.934 27.5422C221.003 30.722 222.867 32.851 225.545 32.7819C228.224 32.7127 229.909 30.5975 229.895 27.3348V27.3487Z" fill="white"/>
<path d="M85.2302 48.3486C81.4745 43.3025 81.6126 40.9523 85.7549 36.5145C84.5122 34.2195 82.7862 32.1043 82.1787 29.7126C80.2041 21.9154 86.1277 15.5006 95.2961 15.3623C98.251 15.3209 101.206 15.943 104.175 16.0812C107.019 16.2057 109.877 16.1089 112.984 16.1089V23.2287C111.548 23.367 110.112 23.5052 108.593 23.6435C108.565 24.0306 108.455 24.3485 108.51 24.6389C110.167 32.4638 106.232 37.8831 98.2372 38.685C96.9945 38.8094 95.7242 38.7541 94.4676 38.7541C92.9902 38.7541 90.9052 37.7172 90.6567 40.2057C90.3943 42.8739 92.6588 42.8463 94.4676 42.9569C98.1267 43.1781 101.813 43.0951 105.445 43.4822C109.104 43.8832 112.432 45.1136 113.467 49.2749C114.489 53.4085 112.943 56.6712 109.808 59.2703C104.216 63.9017 91.2504 64.9938 84.885 61.4685C80.0523 58.7864 79.3895 53.5606 83.4214 49.8417C84.0013 49.3164 84.6088 48.8325 85.2026 48.3348L85.2302 48.3486ZM96.4146 57.5837C98.3338 57.0307 100.391 56.6989 102.172 55.8003C103.07 55.344 104.036 53.7956 103.898 52.9108C103.774 52.1366 102.214 51.1412 101.192 51.003C98.3753 50.6297 95.4756 50.4224 92.645 50.6159C91.4989 50.6989 89.8972 51.7772 89.5244 52.7726C89.2207 53.5883 90.1458 55.4546 91.0433 55.9938C92.5483 56.8786 94.4538 57.0583 96.4146 57.5837ZM100.198 27.6665C100.281 24.4177 98.6376 22.2748 95.9451 22.1365C93.2111 21.9983 91.3195 24.0582 91.2504 27.2379C91.1952 30.5006 92.8521 32.6711 95.517 32.7956C98.2234 32.92 100.115 30.8601 100.198 27.6665Z" fill="white"/>
<path d="M64.5049 16.2744H74.2118V49.0257C67.4598 50.422 66.2861 49.9519 65.361 45.21C64.2978 46.0671 63.3864 46.8552 62.4199 47.5741C58.6504 50.422 54.4666 51.1132 50.1033 49.3298C46.099 47.6847 44.6768 43.9657 44.525 40.1501C44.2074 32.3113 44.4283 24.4311 44.4283 16.3435H54.3975C54.3975 21.7767 54.3975 27.1132 54.3975 32.4496C54.3975 33.9289 54.3975 35.4219 54.4528 36.9012C54.5356 39.5832 55.3641 41.657 58.5813 41.6708C61.5638 41.6708 64.284 39.3482 64.3254 36.5003C64.4082 30.445 64.353 24.4035 64.3668 18.3482C64.3668 17.7813 64.4497 17.2283 64.5187 16.2744H64.5049Z" fill="white"/>
<path d="M184.136 49.3022H174.25V16.3712H181.996C182.314 17.4772 182.659 18.6523 183.059 20.0486C184.426 19.1085 185.614 18.2237 186.857 17.4357C195.086 12.2514 203.605 16.3159 204.103 25.9657C204.503 33.5832 204.185 41.2422 204.185 49.1916H194.202C194.202 44.892 194.202 40.5925 194.202 36.2929C194.202 33.6662 194.202 31.0394 194.119 28.4127C194.037 25.6477 192.904 23.7399 189.811 23.809C186.884 23.8643 184.164 26.3666 184.15 29.021C184.109 35.6432 184.15 42.2515 184.15 49.3022H184.136Z" fill="white"/>
<path d="M155.526 16.3159H165.109V49.2331H155.526V16.3159Z" fill="white"/>
<path d="M160.317 11.2976C156.879 11.2976 154.697 9.38981 154.642 6.29302C154.573 3.07181 156.92 0.901299 160.386 0.956599C163.686 0.998074 165.923 3.11329 165.909 6.19625C165.909 9.29303 163.728 11.2838 160.317 11.2976Z" fill="white"/>
</svg>
